<mxfile host="app.diagrams.net" modified="2023-03-14T12:22:08.631Z" agent="5.0 (Windows NT 10.0; Win64; x64) AppleWebKit/537.36 (KHTML, like Gecko) Chrome/87.0.4280.88 Safari/537.36" etag="PI__Nvtz5vSRPItbAb5y" version="20.5.3" type="github">
  <diagram id="txx3bHHGOBFFJghas2Wa" name="Страница 1">
    <mxGraphModel dx="1422" dy="762" grid="1" gridSize="10" guides="1" tooltips="1" connect="1" arrows="1" fold="1" page="1" pageScale="1" pageWidth="1169" pageHeight="827" math="0" shadow="0">
      <root>
        <mxCell id="0" />
        <mxCell id="1" parent="0" />
        <mxCell id="AzMbnHq6-pzzuQCgAMzn-3" value="string GUID" style="edgeStyle=orthogonalEdgeStyle;rounded=0;orthogonalLoop=1;jettySize=auto;html=1;entryX=0.5;entryY=0;entryDx=0;entryDy=0;" edge="1" parent="1" source="AzMbnHq6-pzzuQCgAMzn-1" target="AzMbnHq6-pzzuQCgAMzn-2">
          <mxGeometry relative="1" as="geometry" />
        </mxCell>
        <mxCell id="AzMbnHq6-pzzuQCgAMzn-10" value="int ID" style="edgeStyle=orthogonalEdgeStyle;rounded=0;orthogonalLoop=1;jettySize=auto;html=1;entryX=0.5;entryY=0;entryDx=0;entryDy=0;" edge="1" parent="1" source="AzMbnHq6-pzzuQCgAMzn-1" target="AzMbnHq6-pzzuQCgAMzn-9">
          <mxGeometry relative="1" as="geometry" />
        </mxCell>
        <mxCell id="AzMbnHq6-pzzuQCgAMzn-1" value="Тип значения ссылочного свойства:" style="rhombus;whiteSpace=wrap;html=1;" vertex="1" parent="1">
          <mxGeometry x="500" y="130" width="170" height="80" as="geometry" />
        </mxCell>
        <mxCell id="AzMbnHq6-pzzuQCgAMzn-5" value="single" style="edgeStyle=orthogonalEdgeStyle;rounded=0;orthogonalLoop=1;jettySize=auto;html=1;entryX=0;entryY=0.5;entryDx=0;entryDy=0;" edge="1" parent="1" source="AzMbnHq6-pzzuQCgAMzn-2" target="AzMbnHq6-pzzuQCgAMzn-21">
          <mxGeometry x="-0.3542" relative="1" as="geometry">
            <mxPoint x="150" y="240" as="targetPoint" />
            <mxPoint as="offset" />
          </mxGeometry>
        </mxCell>
        <mxCell id="AzMbnHq6-pzzuQCgAMzn-7" value="multy" style="edgeStyle=orthogonalEdgeStyle;rounded=0;orthogonalLoop=1;jettySize=auto;html=1;" edge="1" parent="1" source="AzMbnHq6-pzzuQCgAMzn-2" target="AzMbnHq6-pzzuQCgAMzn-6">
          <mxGeometry relative="1" as="geometry" />
        </mxCell>
        <mxCell id="AzMbnHq6-pzzuQCgAMzn-2" value="Meta type:" style="rhombus;whiteSpace=wrap;html=1;" vertex="1" parent="1">
          <mxGeometry x="240" y="200" width="140" height="80" as="geometry" />
        </mxCell>
        <mxCell id="AzMbnHq6-pzzuQCgAMzn-6" value="&lt;div style=&quot;&quot;&gt;&lt;ul&gt;&lt;li&gt;&lt;span style=&quot;background-color: initial;&quot;&gt;Тип свойства: string&lt;/span&gt;&lt;/li&gt;&lt;li&gt;&lt;span style=&quot;background-color: initial;&quot;&gt;Атрибут: MetaType (Type или string)&lt;/span&gt;&lt;/li&gt;&lt;li&gt;Атрибут: bool Multy = true&lt;/li&gt;&lt;/ul&gt;&lt;/div&gt;" style="whiteSpace=wrap;html=1;align=left;" vertex="1" parent="1">
          <mxGeometry x="188.75" y="370" width="242.5" height="60" as="geometry" />
        </mxCell>
        <mxCell id="AzMbnHq6-pzzuQCgAMzn-14" value="1:1" style="edgeStyle=orthogonalEdgeStyle;rounded=0;orthogonalLoop=1;jettySize=auto;html=1;" edge="1" parent="1" source="AzMbnHq6-pzzuQCgAMzn-9" target="AzMbnHq6-pzzuQCgAMzn-13">
          <mxGeometry x="-0.3514" relative="1" as="geometry">
            <mxPoint as="offset" />
          </mxGeometry>
        </mxCell>
        <mxCell id="AzMbnHq6-pzzuQCgAMzn-19" value="Х:Х" style="edgeStyle=orthogonalEdgeStyle;rounded=0;orthogonalLoop=1;jettySize=auto;html=1;exitX=1;exitY=0.5;exitDx=0;exitDy=0;" edge="1" parent="1" source="AzMbnHq6-pzzuQCgAMzn-9" target="AzMbnHq6-pzzuQCgAMzn-18">
          <mxGeometry x="0.1765" relative="1" as="geometry">
            <mxPoint as="offset" />
          </mxGeometry>
        </mxCell>
        <mxCell id="AzMbnHq6-pzzuQCgAMzn-9" value="Отношение Entity к Meta:" style="rhombus;whiteSpace=wrap;html=1;" vertex="1" parent="1">
          <mxGeometry x="790" y="200" width="170" height="80" as="geometry" />
        </mxCell>
        <mxCell id="AzMbnHq6-pzzuQCgAMzn-13" value="&lt;ul&gt;&lt;li&gt;&lt;span style=&quot;background-color: initial;&quot;&gt;Атрибут: MetaType из БД (Type или string)&lt;/span&gt;&lt;br&gt;&lt;/li&gt;&lt;li&gt;Атрибут: bool Multy (если у свойства &amp;lt;2 атрибутов с MetaType)&lt;/li&gt;&lt;/ul&gt;" style="whiteSpace=wrap;html=1;align=left;" vertex="1" parent="1">
          <mxGeometry x="520" y="370" width="245" height="60" as="geometry" />
        </mxCell>
        <mxCell id="AzMbnHq6-pzzuQCgAMzn-18" value="&lt;ul&gt;&lt;li&gt;&lt;span style=&quot;background-color: initial;&quot;&gt;Атрибут: MetaType из БД (Type или string)&lt;/span&gt;&lt;br&gt;&lt;/li&gt;&lt;li&gt;Атрибут: Entity&lt;/li&gt;&lt;li&gt;Атрибут: bool Multy (если у свойства &amp;lt;2 атрибутов с MetaType)&lt;/li&gt;&lt;/ul&gt;" style="whiteSpace=wrap;html=1;align=left;" vertex="1" parent="1">
          <mxGeometry x="860" y="370" width="280" height="60" as="geometry" />
        </mxCell>
        <mxCell id="AzMbnHq6-pzzuQCgAMzn-20" value="Начало" style="rounded=1;whiteSpace=wrap;html=1;arcSize=32;" vertex="1" parent="1">
          <mxGeometry x="525" y="20" width="120" height="60" as="geometry" />
        </mxCell>
        <mxCell id="AzMbnHq6-pzzuQCgAMzn-21" value="Конец" style="rounded=1;whiteSpace=wrap;html=1;arcSize=32;" vertex="1" parent="1">
          <mxGeometry x="525" y="540" width="120" height="60" as="geometry" />
        </mxCell>
        <mxCell id="AzMbnHq6-pzzuQCgAMzn-22" value="" style="endArrow=classic;html=1;rounded=0;exitX=0.5;exitY=1;exitDx=0;exitDy=0;entryX=0;entryY=0.5;entryDx=0;entryDy=0;" edge="1" parent="1" source="AzMbnHq6-pzzuQCgAMzn-6" target="AzMbnHq6-pzzuQCgAMzn-21">
          <mxGeometry width="50" height="50" relative="1" as="geometry">
            <mxPoint x="660" y="410" as="sourcePoint" />
            <mxPoint x="710" y="360" as="targetPoint" />
            <Array as="points">
              <mxPoint x="310" y="570" />
            </Array>
          </mxGeometry>
        </mxCell>
        <mxCell id="AzMbnHq6-pzzuQCgAMzn-23" value="" style="endArrow=classic;html=1;rounded=0;exitX=0.5;exitY=1;exitDx=0;exitDy=0;entryX=0.5;entryY=0;entryDx=0;entryDy=0;" edge="1" parent="1" source="AzMbnHq6-pzzuQCgAMzn-13" target="AzMbnHq6-pzzuQCgAMzn-21">
          <mxGeometry width="50" height="50" relative="1" as="geometry">
            <mxPoint x="660" y="410" as="sourcePoint" />
            <mxPoint x="710" y="360" as="targetPoint" />
            <Array as="points">
              <mxPoint x="643" y="480" />
              <mxPoint x="585" y="480" />
            </Array>
          </mxGeometry>
        </mxCell>
        <mxCell id="AzMbnHq6-pzzuQCgAMzn-24" value="" style="endArrow=classic;html=1;rounded=0;exitX=0.5;exitY=1;exitDx=0;exitDy=0;entryX=1;entryY=0.5;entryDx=0;entryDy=0;" edge="1" parent="1" source="AzMbnHq6-pzzuQCgAMzn-18" target="AzMbnHq6-pzzuQCgAMzn-21">
          <mxGeometry width="50" height="50" relative="1" as="geometry">
            <mxPoint x="910" y="540" as="sourcePoint" />
            <mxPoint x="960" y="490" as="targetPoint" />
            <Array as="points">
              <mxPoint x="1000" y="570" />
            </Array>
          </mxGeometry>
        </mxCell>
        <mxCell id="AzMbnHq6-pzzuQCgAMzn-25" value="" style="endArrow=classic;html=1;rounded=0;exitX=0.5;exitY=1;exitDx=0;exitDy=0;entryX=0.5;entryY=0;entryDx=0;entryDy=0;" edge="1" parent="1" source="AzMbnHq6-pzzuQCgAMzn-20" target="AzMbnHq6-pzzuQCgAMzn-1">
          <mxGeometry width="50" height="50" relative="1" as="geometry">
            <mxPoint x="740" y="110" as="sourcePoint" />
            <mxPoint x="790" y="60" as="targetPoint" />
          </mxGeometry>
        </mxCell>
        <mxCell id="AzMbnHq6-pzzuQCgAMzn-26" value="RefMul" style="text;html=1;strokeColor=#d6b656;fillColor=#fff2cc;align=center;verticalAlign=middle;whiteSpace=wrap;rounded=0;fontStyle=1;fontColor=#009900;" vertex="1" parent="1">
          <mxGeometry x="230" y="330" width="60" height="30" as="geometry" />
        </mxCell>
        <mxCell id="AzMbnHq6-pzzuQCgAMzn-27" value="RefMul" style="text;html=1;strokeColor=#d6b656;fillColor=#fff2cc;align=center;verticalAlign=middle;whiteSpace=wrap;rounded=0;fontStyle=1;fontColor=#5B8765;dashed=1;" vertex="1" parent="1">
          <mxGeometry x="670" y="330" width="60" height="30" as="geometry" />
        </mxCell>
        <mxCell id="AzMbnHq6-pzzuQCgAMzn-29" value="RefMul" style="text;html=1;strokeColor=#d6b656;fillColor=#fff2cc;align=center;verticalAlign=middle;whiteSpace=wrap;rounded=0;fontStyle=1;fontColor=#5B8765;dashed=1;" vertex="1" parent="1">
          <mxGeometry x="1020" y="330" width="60" height="30" as="geometry" />
        </mxCell>
        <mxCell id="AzMbnHq6-pzzuQCgAMzn-30" value="RefMeta" style="text;html=1;strokeColor=#d6b656;fillColor=#fff2cc;align=center;verticalAlign=middle;whiteSpace=wrap;rounded=0;fontStyle=1;fontColor=#009900;" vertex="1" parent="1">
          <mxGeometry x="230" y="300" width="60" height="30" as="geometry" />
        </mxCell>
        <mxCell id="AzMbnHq6-pzzuQCgAMzn-32" value="RefMeta" style="text;html=1;strokeColor=#d6b656;fillColor=#fff2cc;align=center;verticalAlign=middle;whiteSpace=wrap;rounded=0;fontStyle=1;fontColor=#009900;" vertex="1" parent="1">
          <mxGeometry x="670" y="300" width="60" height="30" as="geometry" />
        </mxCell>
        <mxCell id="AzMbnHq6-pzzuQCgAMzn-33" value="RefMetaEx" style="text;html=1;strokeColor=#d6b656;fillColor=#fff2cc;align=center;verticalAlign=middle;whiteSpace=wrap;rounded=0;fontStyle=1;fontColor=#009900;" vertex="1" parent="1">
          <mxGeometry x="1020" y="300" width="70" height="30" as="geometry" />
        </mxCell>
      </root>
    </mxGraphModel>
  </diagram>
</mxfile>
